<svg xmlns="http://www.w3.org/2000/svg" viewBox="0 0 64 64">
  <rect width="64" height="64" rx="16" fill="#111416"/>
  <path d="M45 14A22 22 0 1 0 46 49M45 14h5v8M46 49h4v-8" fill="none" stroke="#79baf0" stroke-width="5" stroke-linecap="round" stroke-linejoin="round"/>
  <path d="M31 13S21 28 21 36a10 10 0 0 0 20 0c0-8-10-23-10-23Z" fill="#79baf0"/>
  <path d="M12 38c8-8 14-6 20-2 7 5 13 6 21-3" fill="none" stroke="#111416" stroke-width="9" stroke-linecap="round"/>
  <path d="M12 38c8-8 14-6 20-2 7 5 13 6 21-3" fill="none" stroke="#d9b083" stroke-width="5" stroke-linecap="round"/>
</svg>
